<svg xmlns="http://www.w3.org/2000/svg" viewBox="0 0 1600 360">
  <defs>
    <linearGradient id="bg" x1="0" y1="0" x2="1" y2="1">
      <stop offset="0" stop-color="#F4F1EC"/>
      <stop offset="1" stop-color="#EDF2F3"/>
    </linearGradient>
  </defs>
  <rect width="1600" height="360" rx="32" fill="url(#bg)"/>
  <g fill="none" stroke="#355C63" stroke-width="5" stroke-linecap="round" stroke-linejoin="round" opacity="0.16">
    <rect x="1090" y="54" width="180" height="232" rx="24"/>
    <path d="M1120 94h120M1120 126h120M1120 158h70"/>
    <rect x="1120" y="190" width="34" height="30" rx="7"/><rect x="1164" y="190" width="34" height="30" rx="7"/><rect x="1208" y="190" width="34" height="30" rx="7"/>
    <rect x="1120" y="232" width="34" height="30" rx="7"/><rect x="1164" y="232" width="34" height="30" rx="7"/><rect x="1208" y="232" width="34" height="30" rx="7"/>
    <rect x="820" y="72" width="190" height="214" rx="24"/>
    <path d="M850 112h130M850 144h130M850 176h82"/>
    <path d="M852 244l38-42 42 28 50-58"/>
    <path d="M1320 278h190"/>
    <path d="M1340 278v-62h32v62M1393 278v-108h32v108M1446 278v-82h32v82"/>
    <circle cx="1408" cy="104" r="58"/>
    <path d="M1388 104h40M1408 84v40"/>
  </g>
  <g opacity="0.12" fill="#B88A52">
    <circle cx="995" cy="78" r="9"/><circle cx="1304" cy="262" r="8"/><circle cx="1505" cy="138" r="10"/>
  </g>
</svg>