<svg xmlns="http://www.w3.org/2000/svg" viewBox="0 0 1600 420">
  <defs>
    <linearGradient id="g1" x1="0" y1="0" x2="1" y2="1">
      <stop offset="0" stop-color="#EEF3F8"/>
      <stop offset="1" stop-color="#F8FAFC"/>
    </linearGradient>
  </defs>
  <rect width="1600" height="420" fill="url(#g1)"/>
  <g opacity="0.22" stroke="#74879A" fill="none" stroke-width="6" stroke-linecap="round" stroke-linejoin="round">
    <rect x="990" y="58" width="188" height="248" rx="22"/>
    <path d="M1022 98h124M1022 126h124M1022 154h48"/>
    <rect x="1018" y="184" width="40" height="32" rx="8"/>
    <rect x="1070" y="184" width="40" height="32" rx="8"/>
    <rect x="1122" y="184" width="40" height="32" rx="8"/>
    <rect x="1018" y="228" width="40" height="32" rx="8"/>
    <rect x="1070" y="228" width="40" height="32" rx="8"/>
    <rect x="1122" y="228" width="40" height="32" rx="8"/>
    <circle cx="1320" cy="114" r="68"/>
    <path d="M1300 114h40M1320 94v40"/>
    <path d="M1248 298h188"/>
    <path d="M1268 298v-74h34v74"/>
    <path d="M1322 298V178h34v120"/>
    <path d="M1376 298V212h34v86"/>
    <path d="M1242 330c38-25 78-32 120-18 42 14 73 12 119-10"/>
    <rect x="700" y="86" width="200" height="220" rx="22"/>
    <path d="M736 124h128M736 154h128M736 184h88"/>
    <path d="M740 242l38-36 42 30 50-52"/>
    <circle cx="740" cy="242" r="6" fill="#74879A"/>
    <circle cx="778" cy="206" r="6" fill="#74879A"/>
    <circle cx="820" cy="236" r="6" fill="#74879A"/>
    <circle cx="870" cy="184" r="6" fill="#74879A"/>
  </g>
</svg>