<svg xmlns="http://www.w3.org/2000/svg" viewBox="0 0 1200 900">
  <rect width="1200" height="900" rx="40" fill="none"/>
  <g opacity="0.26">
    <path d="M0 160 C240 120, 430 215, 650 175 C860 140, 1020 150, 1200 120 L1200 320 C970 350, 800 345, 630 372 C420 405, 230 330, 0 360 Z" fill="#39A9E1"/>
    <path d="M0 330 C260 300, 450 402, 670 360 C860 325, 1030 336, 1200 314 L1200 366 C1020 387, 850 378, 664 410 C438 449, 255 360, 0 392 Z" fill="#D94B52" opacity="0.9"/>
    <path d="M0 365 C255 335, 455 435, 675 395 C860 362, 1030 375, 1200 352 L1200 595 C982 624, 800 622, 630 650 C423 686, 230 606, 0 638 Z" fill="#FFFFFF"/>
    <path d="M0 594 C250 562, 460 660, 670 622 C860 587, 1030 602, 1200 578 L1200 770 C980 799, 800 798, 626 825 C420 860, 230 782, 0 812 Z" fill="#1EB36A"/>
    <path d="M0 584 C255 552, 460 648, 670 611 C860 578, 1030 592, 1200 570 L1200 595 C1030 617, 860 603, 670 636 C460 674, 255 578, 0 610 Z" fill="#D94B52" opacity="0.9"/>
  </g>
  <g opacity="0.20" transform="translate(150 110)">
    <circle cx="145" cy="120" r="62" fill="#FFFFFF"/>
    <circle cx="166" cy="120" r="52" fill="#39A9E1"/>
    <g fill="#FFFFFF">
      <path d="M238 70l6 17h18l-14 10 5 17-15-10-15 10 5-17-14-10h18z"/>
      <path d="M284 70l6 17h18l-14 10 5 17-15-10-15 10 5-17-14-10h18z"/>
      <path d="M330 70l6 17h18l-14 10 5 17-15-10-15 10 5-17-14-10h18z"/>
      <path d="M376 70l6 17h18l-14 10 5 17-15-10-15 10 5-17-14-10h18z"/>
      <path d="M422 70l6 17h18l-14 10 5 17-15-10-15 10 5-17-14-10h18z"/>
      <path d="M261 116l6 17h18l-14 10 5 17-15-10-15 10 5-17-14-10h18z"/>
      <path d="M307 116l6 17h18l-14 10 5 17-15-10-15 10 5-17-14-10h18z"/>
      <path d="M353 116l6 17h18l-14 10 5 17-15-10-15 10 5-17-14-10h18z"/>
      <path d="M399 116l6 17h18l-14 10 5 17-15-10-15 10 5-17-14-10h18z"/>
      <path d="M284 162l6 17h18l-14 10 5 17-15-10-15 10 5-17-14-10h18z"/>
      <path d="M330 162l6 17h18l-14 10 5 17-15-10-15 10 5-17-14-10h18z"/>
      <path d="M376 162l6 17h18l-14 10 5 17-15-10-15 10 5-17-14-10h18z"/>
    </g>
  </g>
</svg>