<svg xmlns="http://www.w3.org/2000/svg" viewBox="0 0 900 1600">
  <defs>
    <filter id="blur"><feGaussianBlur stdDeviation="1.5"/></filter>
  </defs>
  <g opacity="0.18" filter="url(#blur)">
    <path d="M-140 90 C110 35, 250 180, 470 120 C650 72, 790 98, 1040 30 L1040 330 C795 405, 650 365, 455 415 C250 468, 80 338, -140 395Z" fill="#2D9ED2"/>
    <path d="M-140 368 C90 310, 275 448, 465 400 C650 352, 810 392, 1040 330 L1040 366 C820 428, 650 392, 462 438 C250 490, 80 360, -140 418Z" fill="#C84C55"/>
    <path d="M-140 405 C82 348, 278 480, 468 435 C650 392, 815 430, 1040 370 L1040 670 C800 728, 655 698, 452 748 C252 798, 76 670, -140 730Z" fill="#FFFFFF"/>
    <path d="M-140 690 C80 635, 275 770, 465 726 C655 682, 820 715, 1040 660 L1040 995 C805 1058, 655 1028, 452 1075 C250 1122, 80 997, -140 1050Z" fill="#28A764"/>
    <path d="M-140 662 C85 610, 275 742, 465 698 C650 655, 815 688, 1040 635 L1040 678 C810 730, 650 700, 465 745 C250 795, 82 662, -140 720Z" fill="#C84C55"/>
  </g>
  <g opacity="0.12" transform="translate(88 115)">
    <circle cx="112" cy="120" r="54" fill="#FFFFFF"/>
    <circle cx="133" cy="120" r="45" fill="#2D9ED2"/>
    <g fill="#FFFFFF">
      <circle cx="210" cy="76" r="5"/><circle cx="240" cy="76" r="5"/><circle cx="270" cy="76" r="5"/><circle cx="300" cy="76" r="5"/>
      <circle cx="225" cy="106" r="5"/><circle cx="255" cy="106" r="5"/><circle cx="285" cy="106" r="5"/><circle cx="315" cy="106" r="5"/>
      <circle cx="240" cy="136" r="5"/><circle cx="270" cy="136" r="5"/><circle cx="300" cy="136" r="5"/>
    </g>
  </g>
</svg>